<svg xmlns="http://www.w3.org/2000/svg" viewBox="0 0 1100 460" role="img" font-family="Segoe UI, system-ui, sans-serif" font-style="normal">
  <title>Two featured projects — Banking Session Management and E-commerce Lead Generation</title>
  <defs>
    <linearGradient id="accent" x1="0" y1="0" x2="1" y2="0">
      <stop offset="0" stop-color="#238636"/>
      <stop offset="1" stop-color="#2ea043"/>
    </linearGradient>
  </defs>

  <g>
    <rect x="25" y="20" width="520" height="410" rx="8" fill="#161b22" stroke="#30363d" stroke-width="1"/>
    <rect x="25" y="20" width="520" height="3" rx="1.5" fill="url(#accent)"/>
    <text x="285" y="62" text-anchor="middle" font-size="23" font-weight="700" fill="#f0f6fc">Banking Session Management</text>
    <line x1="45" y1="78" x2="525" y2="78" stroke="#30363d" stroke-width="1"/>
    <text x="285" y="104" text-anchor="middle" font-size="14" fill="#58a6ff">Practical Python security — session management</text>
    <text x="58" y="138" font-size="15" fill="#c9d1d9">•  bcrypt password hashing</text>
    <text x="58" y="165" font-size="15" fill="#c9d1d9">•  AES-256-GCM encrypted session storage</text>
    <text x="58" y="192" font-size="15" fill="#c9d1d9">•  Idle &amp; absolute session timeouts</text>
    <text x="58" y="219" font-size="15" fill="#c9d1d9">•  Max sessions · eviction · lockout</text>
    <text x="58" y="246" font-size="15" fill="#c9d1d9">•  CLI · security logging</text>
    <rect x="106" y="286" width="118" height="26" rx="6" fill="#161b22" stroke="#30363d"/>
    <text x="165" y="304" text-anchor="middle" font-size="11" fill="#8b949e">Automated tests</text>
    <rect x="232" y="286" width="112" height="26" rx="6" fill="#161b22" stroke="#30363d"/>
    <text x="288" y="304" text-anchor="middle" font-size="11" fill="#8b949e">High coverage</text>
    <rect x="352" y="286" width="112" height="26" rx="6" fill="#161b22" stroke="#30363d"/>
    <text x="408" y="304" text-anchor="middle" font-size="11" fill="#8b949e">Security-first</text>
    <text x="285" y="346" text-anchor="middle" font-size="14" fill="#8b949e">Python · bcrypt · AES-256-GCM · pytest</text>
    <rect x="195" y="366" width="180" height="42" rx="6" fill="#238636"/>
    <text x="285" y="393" text-anchor="middle" font-size="15" font-weight="600" fill="#ffffff">View Repo</text>
  </g>

  <g>
    <rect x="555" y="20" width="520" height="410" rx="8" fill="#161b22" stroke="#30363d" stroke-width="1"/>
    <rect x="555" y="20" width="520" height="3" rx="1.5" fill="url(#accent)"/>
    <text x="815" y="62" text-anchor="middle" font-size="23" font-weight="700" fill="#f0f6fc">E-commerce Lead Generation</text>
    <line x1="575" y1="78" x2="1055" y2="78" stroke="#30363d" stroke-width="1"/>
    <text x="815" y="104" text-anchor="middle" font-size="14" fill="#58a6ff">AI agent project — research, scoring, qualification</text>
    <text x="588" y="138" font-size="15" fill="#c9d1d9">•  AI-assisted business research</text>
    <text x="588" y="165" font-size="15" fill="#c9d1d9">•  Lead qualification &amp; scoring</text>
    <text x="588" y="192" font-size="15" fill="#c9d1d9">•  Confidence levels · duplicate detection</text>
    <text x="588" y="219" font-size="15" fill="#c9d1d9">•  Platform &amp; automation identification</text>
    <text x="588" y="246" font-size="15" fill="#c9d1d9">•  CLI workflow</text>
    <rect x="671" y="286" width="150" height="26" rx="6" fill="#161b22" stroke="#30363d"/>
    <text x="746" y="304" text-anchor="middle" font-size="11" fill="#8b949e">No fabricated leads</text>
    <rect x="829" y="286" width="130" height="26" rx="6" fill="#161b22" stroke="#30363d"/>
    <text x="894" y="304" text-anchor="middle" font-size="11" fill="#8b949e">Evidence-based</text>
    <text x="815" y="346" text-anchor="middle" font-size="14" fill="#8b949e">Python · AI · APIs · CLI</text>
    <rect x="725" y="366" width="180" height="42" rx="6" fill="#238636"/>
    <text x="815" y="393" text-anchor="middle" font-size="15" font-weight="600" fill="#ffffff">View Repo</text>
  </g>
</svg>